<?xml version="1.0" encoding="UTF-8"?>
<svg width="18px" height="18px" viewBox="0 0 21 22" version="1.1" xmlns="http://www.w3.org/2000/svg" xmlns:xlink="http://www.w3.org/1999/xlink">
    <!-- Generator: sketchtool 63.1 (101010) - https://sketch.com -->
    <title>80C3F6AB-D77B-4FB5-ACA3-19DFD6A23078</title>
    <desc>Created with sketchtool.</desc>
    <g id="ðŸ–¥ï¸-bpost-bank" stroke="none" stroke-width="1"  fill-rule="evenodd">
        <g id="MyAccounts_L" transform="translate(-632.000000, -310.000000)" fill="#4a148c" stroke="#4a148c" stroke-width="0.5">
            <g id="Transactions-List" transform="translate(440.000000, 289.000000)">
                <g id="Header-Account" transform="translate(0.000000, 20.000000)">
                    <path d="M208.008117,2.09407273 C207.958622,2.10521855 207.913474,2.13061417 207.878247,2.16712468 L194.371753,15.6736182 C194.339528,15.7076064 194.317091,15.7496751 194.306818,15.7953714 L193.008117,21.5096571 C192.986281,21.5970115 193.011239,21.6894434 193.074077,21.7539343 C193.136914,21.8184251 193.228667,21.8457756 193.316558,21.8262156 L199.030844,20.5275143 C199.080339,20.5163685 199.125487,20.4909728 199.160714,20.4544623 L212.667208,6.94796883 C212.767257,6.84676928 212.767257,6.68390865 212.667208,6.58270909 L208.251623,2.16712468 C208.18873,2.10200481 208.09647,2.07432674 208.008117,2.09407273 Z M208.064935,2.71907273 L212.107143,6.7693974 L209.883117,8.99342338 L205.840909,4.95121558 L208.064935,2.71907273 Z M205.467532,5.31647532 L209.50974,9.3668 L198.974026,19.9025143 L194.931818,15.8603065 L205.467532,5.31647532 Z M194.704545,16.3716701 L198.454545,20.1216701 L193.600649,21.2255662 L194.704545,16.3716701 Z" id="Edit"></path>
                </g>
            </g>
        </g>
    </g>
</svg>